<svg xmlns="http://www.w3.org/2000/svg" xmlns:xlink="http://www.w3.org/1999/xlink">
<defs>
<path id="qmwwa" d="M1391.04 30.26l.7.7-3.53 3.54 3.53 3.54-.7.7-3.54-3.53-3.54 3.53-.7-.7 3.53-3.54-3.53-3.54.7-.7 3.54 3.53z"/>
<path id="yayxa" d="M214.07 38a2 2 0 1 0 0-4 2 2 0 0 0 0 4zm-7 0a2 2 0 1 0 0-4 2 2 0 0 0 0 4zm-7 0a2 2 0 1 0 0-4 2 2 0 0 0 0 4z"/>
<path id="jtima" d="M1388.37 32.54l.37.01v-1.73c0-.1.05-.19.14-.23.09-.04.2-.03.27.03l4.26 3.51a.25.25 0 0 1 0 .39l-4.26 3.5a.25.25 0 0 1-.41-.19v-1.8a6.57 6.57 0 0 0-1.38-.15c-1.4 0-3.29.45-4.42 2.57a.25.25 0 0 1-.47-.11c0-5.38 4.52-5.8 5.9-5.8z"/>
</defs>
<symbol id="icon-arrow-left" viewBox="0 0 100.5 100.5"><path d="M95.5 45.3H17.1L53.8 8.5c2-2 2-5.1 0-7.1s-5.1-2-7.1 0L1.5 46.7c-.3.3-.5.5-.7.8-.1.1-.1.3-.2.4-.1.2-.2.3-.2.5-.1.2-.1.3-.2.5 0 .1-.1.3-.1.4-.1.6-.1 1.3 0 2 0 .1.1.3.1.4.1.2.1.3.2.5s.2.3.3.5c.1.1.1.3.2.4.2.3.4.5.6.8L46.7 99c1 1 2.3 1.5 3.5 1.5 1.3 0 2.6-.5 3.5-1.5 2-2 2-5.1 0-7.1L17.1 55.3h78.4c2.8 0 5-2.2 5-5s-2.2-5-5-5z"/></symbol>
<symbol id="icon-close" viewBox="0 0 11 11"><use fill="#fff" xlink:href="#qmwwa" transform="translate(-1382 -29)"/></symbol>
<symbol id="icon-cup" viewBox="0 0 35.9 40"><path id="_x33_fpxa" d="M18.8 33.5h1.8c1.7 0 3 .5 4 1.5 1 1.2 1.6 2.7 1.5 4.2v.8H9.8v-.8c.1-4.2 3.2-5.6 4.8-5.7h2.5v-5.7c-4.4 0-8.4-2.9-9.7-7.2h-.7c-1.4 0-3.4-.3-4.9-1.5-1.2-1-1.8-2.5-1.8-4.4V4.9h7.4V0h21.3v4.9h7.4v9.7c0 1.9-.6 3.4-1.8 4.4-1.5 1.3-3.5 1.5-4.9 1.5h-.8c-1.4 4.2-5.2 7.1-9.6 7.3l-.2 5.7zm-7.3 4.9h12.9c-.1-.8-.5-1.6-1-2.3-.7-.7-1.6-1-2.8-1h-5.9c-.2.1-2.7.4-3.2 3.3zM1.6 6.5v8.2c0 1.4.4 2.4 1.2 3.2 1.3 1 3.3 1.2 4.5 1.1V6.5H1.6zm27 12.4c1.1.1 3.1 0 4.5-1.1.8-.7 1.3-1.8 1.3-3.2V6.5h-5.7v12.4zm-10.7 7.2c7.1 0 8.9-5.8 9.1-6.5v-18H9v18.3c.2.8 1.8 6.3 8.9 6.2z"/></symbol>
<symbol id="icon-dots" viewBox="0 0 21 7"><use fill="#666" xlink:href="#yayxa" transform="translate(-197 -33)"/></symbol>
<symbol id="icon-facebook" viewBox="0 0 16.5 32"><path class="st0" d="M3.7 17.7V32h7V17.8h4.8l1.2-5.9h-5.9V7.5C10.7 6.9 11 6 12 6h3.4V0H9.1C6.9 0 3.7 2.7 3.7 5.5v6.1H0v6l3.7.1z"/></symbol>
<symbol id="icon-flower" viewBox="0 0 26.1 38.4"><path id="_x33_4gda" d="M13.1 14.9c-2 0-3.7-1.7-3.7-3.7S11 7.5 13 7.5h.1c2 0 3.7 1.7 3.7 3.7s-1.7 3.6-3.7 3.7zm0-5.8c-1.2 0-2 .9-2 2s.9 2 2 2 2.1-.9 2.1-2c-.1-1-1-2-2.1-2zm5.4 29.3l-1.2-1.2.6.6-.7-.4c.2-.3.9-2.3 1.5-4.4l-5.5-1.7.5-1.6 5.4 1.7c.2-1 .4-1.9.4-2.7.1-2.8-1.5-5.5-2.3-6.8l-.2-.3c-.3-.4-.6-1-1-1.5-.4.9-1.1 1.7-1.9 2.3-.8.5-1.7.8-2.7.8-.5 0-.9-.1-1.3-.2-2-.4-3.4-1.3-4.2-2.7-.6-1.1-.8-2.3-.6-3.4-1 0-2.5-.3-3.6-1.3-1.2-1.1-1.8-2.7-1.8-4.9 0-2 .6-3.4 1.8-4.3 1-.7 2.3-1 3.5-.9 0-.8.1-1.6.4-2.4C6.2 1.8 7.4.8 9.3.3c3.9-1.1 6.3 1.2 7.3 3.2 1-.7 2.3-1.1 3.6-1 1.3.1 2.5.8 3.5 2.1 1.1 1.4 1.5 2.8 1.2 4.2-.3 1.2-1 2.2-2 2.9.5.6 1.2 1.4 1.4 2.5.3 1.4-.2 2.8-1.3 4.3-1.3 1.9-3.3 2-5 1.6.2.2.3.5.4.7l.2.3c.5.8 1.4 2.4 2 4.2l5-1.6.5 1.5-5.1 1.6c.1.6.2 1.2.1 1.9 0 3.2-2.2 9.2-2.6 9.7zM7.2 16.2s-.6 1.8.3 3.2c.5 1 1.5 1.6 3 1.9 1.1.2 2 .1 2.7-.4C14.6 20 15 18 15 18l.2-1.2 1 .7c.2.1 3.6 2.4 5.4-.1.8-1.1 1.1-2.1 1-3-.3-1.4-1.5-2.2-1.6-2.2l-1.2-.8 1.3-.7s1.7-1 2.1-2.5c.2-.9-.1-1.8-.9-2.8C21.6 4.5 20.8 4 20 4c-1.7-.1-3.2 1.3-3.2 1.3l-.9.9-.4-1.2c-.1-.1-1.5-4.4-5.7-3.1-1.4.4-2.3 1-2.7 1.9-.4 1.1.1 2.2.1 2.2l.9 1.7-1.8-.5s-2.1-.6-3.5.4c-.8.6-1.2 1.6-1.2 3 0 1.7.4 2.9 1.2 3.6 1.3 1.2 3.4.9 3.4.9l1.3-.2-.3 1.3z"/></symbol>
<symbol id="icon-globe" viewBox="0 0 32 41.1"><path id="le05a" d="M22.8 41.1h-11v-1.8h5.5v-2.8C7.7 36.2 0 28.3 0 18.6 0 12.1 3.5 6.1 9.2 2.9L8.2.8 9.8 0l1.8 3.8-.8.4c-5.5 2.7-9 8.3-8.9 14.4 0 8.7 6.9 15.8 15.5 16.1v-.2h1.8v.1c2.8-.3 5.3-1.4 5.3-1.4l.8-.4 1.8 3.7-1.6.8-1-2.1c-1.1.4-3 1-5.2 1.3v2.8H23l-.2 1.8zm-5-8.2c-7.9 0-14.2-6.4-14.2-14.3S9.9 4.4 17.8 4.4 32 10.8 32 18.7s-6.3 14.2-14.2 14.2zm0-26.6c-6.9 0-12.4 5.6-12.4 12.4S11 31.1 17.8 31.1s12.4-5.6 12.4-12.4S24.6 6.3 17.8 6.3z"/></symbol>
<symbol id="icon-interface" viewBox="0 0 32.7 32.7"><path id="_x36_kwua" d="M0 6.5V4.9h18.8V1.6c0-1 .7-1.6 1.6-1.6h4.1c1 0 1.6.7 1.6 1.6v3.3h6.5v1.6h-6.5V9c0 1-.7 1.6-1.6 1.6h-4.1c-1 0-1.6-.7-1.6-1.6V6.5H0zm32.7 10.7H13.9v2.5c0 .9-.7 1.6-1.6 1.6H8.2c-.9 0-1.6-.7-1.6-1.6v-7.3c0-1 .7-1.6 1.6-1.6h4.1c.9 0 1.6.7 1.6 1.6v3.3h18.8v1.5zm-26.2 0H0v-1.6h6.5v1.6zm12.2 11.4H0V27h18.7v1.6zm14 0h-6.5V31c0 1-.7 1.6-1.6 1.6h-4.1c-1 0-1.6-.7-1.6-1.6v-7.3c0-.9.7-1.6 1.6-1.6h4.1c1 0 1.6.7 1.6 1.6V27h6.5v1.6zm-12.3-4.9V31h4.1v-7.3h-4.1zM8.2 12.3v7.3h4.1v-7.3H8.2zM20.4 1.6V9h4.1V1.6h-4.1z"/></symbol>
<symbol id="icon-mail" viewBox="0 0 19.8 13.5"><path id="gzl1a" d="M19.8 1.8v9.9c0 1-.8 1.8-1.8 1.8H1.8c-1 0-1.8-.8-1.8-1.8V1.8c0-.3.1-.7.3-.9l9.4 7.6c.2.1.4.1.6 0L19.7.9c0 .3.1.6.1.9zM9.9 7.6L.9.3c.3-.2.6-.3.9-.3H18c.3 0 .6.1.9.2l-9 7.4z"/></symbol>
<symbol id="icon-menu" viewBox="0 0 16 13"><title>B9292A2C-E2A9-4B09-850B-9BD6D0E14550</title><g id="Page-1"><g id="mobile_biiz" transform="translate(-344 -16)"><g id="menu" transform="translate(344 16)"><path id="Shape" class="st0" d="M16 .8c0-.5-.3-.8-.7-.8H.7C.3 0 0 .3 0 .8v1.5c0 .4.3.7.7.7h14.7c.3 0 .6-.3.6-.7V.8z"/><path id="Shape_1_" class="st0" d="M16 5.8c0-.5-.3-.8-.7-.8H.7c-.4 0-.7.3-.7.8v1.5c0 .4.3.7.7.7h14.7c.3 0 .6-.3.6-.7V5.8z"/><path id="Shape_2_" class="st0" d="M16 10.8c0-.4-.3-.8-.7-.8H.7c-.4 0-.7.3-.7.8v1.5c0 .4.3.7.7.7h14.7c.4 0 .7-.3.7-.8v-1.4z"/></g></g></g></symbol>
<symbol id="icon-share" viewBox="0 0 14 11"><use fill="#fff" xlink:href="#jtima" transform="translate(-1381 -29)"/></symbol>
<symbol id="icon-twitter" viewBox="0 0 32 26"><path class="st0" d="M32 3.1c-1.2.5-2.4.9-3.8 1 1.4-.8 2.4-2.1 2.9-3.6-1.3.8-2.7 1.3-4.2 1.6C25.8.8 24 0 22.2 0c-3.6 0-6.6 2.9-6.6 6.6 0 .5.1 1 .2 1.5-5.5-.3-10.3-2.9-13.6-6.9-.6 1-.9 2.1-.9 3.3 0 2.3 1.2 4.3 2.9 5.5-1.1 0-2.1-.3-3-.8v.1c0 3.2 2.3 5.8 5.3 6.4-.6.1-1.1.2-1.7.2-.4 0-.8 0-1.2-.1.8 2.6 3.3 4.5 6.1 4.6-2.2 1.8-5.1 2.8-8.2 2.8-.5 0-1.1 0-1.6-.1 2.9 1.9 6.4 3 10.1 3 12.1 0 18.7-10 18.7-18.7v-.8c1.3-1 2.4-2.2 3.3-3.5z"/></symbol>
<symbol id="icon-whatsup" viewBox="0 0 21.6 20"><path id="p94fa" d="M21.4 14.8c-.1-.2-.5-.3-1-.6-1.2-.6-2.4-1.2-3.6-1.7-.5-.2-.8-.3-1.2.3-.5.7-1.1 1.4-1.7 2.1-.3.3-.6.4-1.1.1-.5-.3-2.2-.8-4.3-2.6-1.1-1.1-2.1-2.4-2.9-3.7-.3-.5 0-.8.2-1.1.9-.9 1.1-1.4 1.3-1.8.2-.4.1-.7 0-.9C7 4.6 5.9 2 5.5 1 5-.2 2.7-.3 1.9.7c-2.9 3.1-2.2 6.6.3 9.8.3.3 3.7 5.8 9 8 5.4 2.1 5.4 1.4 6.4 1.3 2.7-.2 4.6-3.7 3.8-5"/></symbol>
</svg>