<svg xmlns="http://www.w3.org/2000/svg" viewBox="0 0 77 14.7"><path d="M1.6 2.8V.9h6.2v8.2c0 1.4-.4 2.5-1.1 3.2-.8.7-1.8 1.1-2.9 1.1-1.5 0-2.8-.5-3.8-1.5l1.2-1.6c.8.7 1.7 1.1 2.4 1.1.6 0 1-.2 1.4-.5.4-.4.6-.9.6-1.7V2.8h-4zM20.8 12c-1 .9-2.2 1.4-3.7 1.4-1.4 0-2.7-.5-3.7-1.4s-1.5-2.1-1.5-3.5c0-1.3.5-2.5 1.5-3.4s2.2-1.4 3.7-1.4 2.7.5 3.7 1.4 1.5 2.1 1.5 3.4c0 1.4-.5 2.6-1.5 3.5zm-5.9-1.2c.6.6 1.4.9 2.2.9.8 0 1.6-.3 2.2-.9.6-.6.9-1.3.9-2.2s-.3-1.7-.9-2.2c-.6-.6-1.4-.9-2.2-.9-.8 0-1.6.3-2.2.9-.6.6-.9 1.4-.9 2.2.1.9.4 1.6.9 2.2zm13.6 2.5h-2V.1h2v13.2zm7.3-7.9v4.8c0 .4.1.8.4 1.1.2.3.6.4 1 .4s.9-.2 1.3-.6l.8 1.4c-.7.6-1.5.9-2.4.9-1.7 0-3.1-1.3-3.2-3v-5h-1.2V3.8h1.2v-3h2.1v3h2.6v1.6h-2.6zm16 4h-7.6c.1.7.4 1.2 1 1.7.6.4 1.3.6 2 .6 1.2 0 2.2-.4 2.8-1.1l1.2 1.2c-1.1 1.1-2.6 1.6-4.1 1.6-1.3 0-2.5-.4-3.5-1.3s-1.5-2.2-1.4-3.5c-.1-1.3.5-2.6 1.5-3.5.9-.9 2.2-1.3 3.4-1.3s2.4.4 3.4 1.2c.9.8 1.5 2 1.4 3.2l-.1 1.2zm-7.6-1.5h5.6c0-.8-.3-1.4-.8-1.8-.5-.4-1.2-.7-1.9-.6-.7 0-1.4.2-2 .7-.6.3-.9.9-.9 1.7zm12.4 4.2c-.9-.9-1.4-2.2-1.4-3.5 0-1.5.5-2.6 1.4-3.5s2.1-1.3 3.4-1.3c1.3 0 2.3.5 3.1 1.6V.1h2.1v13.1h-2.1v-1.4c-.8 1-2 1.6-3.3 1.6-1.2 0-2.3-.4-3.2-1.3zm.7-3.5c-.1 1.6 1.2 3 2.9 3.1.8 0 1.6-.3 2.2-.9.6-.6.8-1.3.8-2.2s-.3-1.7-.8-2.3-1.3-.9-2.1-.9-1.5.3-2.1.9c-.6.7-.9 1.5-.9 2.3zM77 0l-5.1 4.9 2.6 2.5zm-5 14.8l5-4.9-2.5-2.4z"/></svg>